<svg width="172" height="27" viewBox="0 0 172 27" fill="none" xmlns="http://www.w3.org/2000/svg">
<g clip-path="url(#clip0_6628_5548)">
<path d="M43.1314 11.2696C43.7981 10.0643 44.7274 9.12149 45.9193 8.44809C47.1112 7.77469 48.4647 7.43799 49.9732 7.43799C51.825 7.43799 53.4075 7.92957 54.7274 8.906C56.0472 9.88243 56.9226 11.2158 57.3671 12.906H53.192C52.8822 12.2528 52.4378 11.7612 51.8721 11.4178C51.2997 11.0744 50.6533 10.906 49.926 10.906C48.7543 10.906 47.8115 11.31 47.0843 12.1249C46.357 12.9397 45.9934 14.0306 45.9934 15.3909C45.9934 16.7511 46.357 17.842 47.0843 18.6568C47.8115 19.4717 48.7543 19.8757 49.926 19.8757C50.6533 19.8757 51.2997 19.7073 51.8721 19.3639C52.4445 19.0205 52.8822 18.5289 53.192 17.8757H57.3671C56.9226 19.5659 56.0405 20.8925 54.7274 21.8622C53.4075 22.8319 51.825 23.3168 49.9732 23.3168C48.4647 23.3168 47.1112 22.9801 45.9193 22.3067C44.7274 21.6333 43.7981 20.6972 43.1314 19.4986C42.4647 18.2999 42.1348 16.9329 42.1348 15.3909C42.1348 13.8488 42.4647 12.475 43.1314 11.2696Z" fill="white"/>
<path d="M61.6231 22.6094C60.6534 22.0909 59.8925 21.3501 59.3336 20.3872C58.7814 19.4242 58.4985 18.2996 58.4985 17.0134C58.4985 15.7272 58.7814 14.6161 59.3403 13.6464C59.9059 12.6767 60.6736 11.936 61.6501 11.4175C62.6265 10.899 63.7241 10.6431 64.9362 10.6431C66.1484 10.6431 67.246 10.899 68.2224 11.4175C69.1989 11.936 69.9665 12.6767 70.5322 13.6464C71.0979 14.6161 71.374 15.7407 71.374 17.0134C71.374 18.2862 71.0911 19.4107 70.5187 20.3804C69.9463 21.3501 69.1719 22.0909 68.1888 22.6094C67.2056 23.1279 66.108 23.3838 64.8891 23.3838C63.6703 23.3838 62.5861 23.1279 61.6164 22.6094H61.6231ZM66.7544 19.303C67.2662 18.771 67.5221 18.0101 67.5221 17.0134C67.5221 16.0168 67.2729 15.2626 66.7814 14.7239C66.283 14.1919 65.677 13.9225 64.9497 13.9225C64.2224 13.9225 63.5962 14.1852 63.1046 14.7104C62.613 15.2357 62.3706 16.0033 62.3706 17.0067C62.3706 18.0101 62.613 18.7643 63.0911 19.2963C63.5692 19.8283 64.1753 20.0976 64.9026 20.0976C65.6298 20.0976 66.2494 19.8283 66.7544 19.2963V19.303Z" fill="white"/>
<path d="M72.9222 13.633C73.4003 12.67 74.0602 11.9292 74.8885 11.4107C75.7168 10.8922 76.6394 10.6363 77.6629 10.6363C78.4778 10.6363 79.2185 10.8047 79.8919 11.1481C80.5653 11.4915 81.0973 11.9494 81.4811 12.5218V6.771H85.2791V23.202H81.4811V21.4242C81.1242 22.0168 80.6192 22.4882 79.9592 22.8451C79.2993 23.202 78.5316 23.3771 77.6629 23.3771C76.6394 23.3771 75.7168 23.1144 74.8885 22.5892C74.0602 22.0639 73.407 21.3165 72.9222 20.3468C72.4441 19.3771 72.2017 18.2592 72.2017 16.9798C72.2017 15.7003 72.4441 14.5892 72.9222 13.6262V13.633ZM80.6932 14.7643C80.168 14.2188 79.5283 13.9427 78.7741 13.9427C78.0198 13.9427 77.3801 14.2121 76.8549 14.7508C76.3296 15.2895 76.067 16.037 76.067 16.9798C76.067 17.9225 76.3296 18.6767 76.8549 19.2356C77.3801 19.7878 78.0198 20.0707 78.7741 20.0707C79.5283 20.0707 80.168 19.7946 80.6932 19.2491C81.2185 18.7037 81.4811 17.9562 81.4811 17.0067C81.4811 16.0572 81.2185 15.3097 80.6932 14.7643Z" fill="white"/>
<path d="M99.2052 17.9225H90.6126C90.6732 18.6902 90.9224 19.2828 91.3534 19.6868C91.7911 20.0909 92.3298 20.2996 92.9628 20.2996C93.9123 20.2996 94.5722 19.9023 94.9426 19.101H98.983C98.7743 19.9158 98.4039 20.6498 97.8584 21.2963C97.3197 21.9495 96.6396 22.4612 95.8248 22.8316C95.0099 23.202 94.1009 23.3838 93.0908 23.3838C91.8786 23.3838 90.7944 23.1279 89.8517 22.6094C88.9022 22.0909 88.1615 21.3501 87.6295 20.3872C87.0975 19.4242 86.8281 18.2996 86.8281 17.0134C86.8281 15.7272 87.0907 14.6027 87.616 13.6397C88.1413 12.6767 88.8753 11.936 89.8248 11.4175C90.7742 10.899 91.8584 10.6431 93.0908 10.6431C94.3231 10.6431 95.3534 10.8922 96.2894 11.3973C97.2187 11.9023 97.9527 12.6161 98.478 13.5522C99.0032 14.4815 99.2658 15.5724 99.2658 16.8182C99.2658 17.1751 99.2456 17.5454 99.1985 17.9293L99.2052 17.9225ZM95.387 15.8148C95.387 15.1616 95.1648 14.6431 94.7204 14.2592C94.2759 13.8754 93.7237 13.6801 93.0571 13.6801C92.3904 13.6801 91.8854 13.8619 91.4477 14.2323C91.0099 14.6027 90.7406 15.1279 90.6396 15.8081H95.3938L95.387 15.8148Z" fill="white"/>
<path d="M108.997 23.2089L105.758 17.3233H104.849V23.2089H101.051V7.61963H107.421C108.653 7.61963 109.697 7.83512 110.566 8.26609C111.435 8.69707 112.081 9.28293 112.512 10.0304C112.943 10.7779 113.159 11.6129 113.159 12.5287C113.159 13.5658 112.869 14.4883 112.283 15.3031C111.697 16.1179 110.835 16.6971 109.697 17.0338L113.293 23.2089H109.004H108.997ZM104.842 14.6365H107.199C107.893 14.6365 108.418 14.4681 108.761 14.1247C109.111 13.7812 109.286 13.3031 109.286 12.6836C109.286 12.0641 109.111 11.6264 108.761 11.2829C108.411 10.9395 107.893 10.7711 107.199 10.7711H104.842V14.6365Z" fill="white"/>
<path d="M115.051 13.633C115.529 12.67 116.189 11.9293 117.017 11.4108C117.845 10.8923 118.775 10.7104 119.791 10.7104H127.408V23.202H123.61V21.4512C123.239 22.0303 122.727 22.495 122.067 22.8519C121.408 23.2088 120.64 23.3839 119.771 23.3839C118.761 23.3839 117.845 23.1212 117.017 22.596C116.189 22.0707 115.535 21.3232 115.051 20.3535C114.573 19.3839 114.33 18.266 114.33 16.9865C114.33 15.7071 114.573 14.596 115.051 13.633ZM122.822 14.7643C122.296 14.2189 121.657 13.9428 120.902 13.9428C120.148 13.9428 119.509 14.2121 118.983 14.7509C118.458 15.2896 118.195 16.037 118.195 16.9798C118.195 17.9226 118.458 18.6768 118.983 19.2357C119.509 19.7879 120.148 20.0707 120.902 20.0707C121.657 20.0707 122.296 19.7946 122.822 19.2492C123.347 18.7037 123.61 17.9562 123.61 17.0067C123.61 16.0573 123.347 15.3098 122.822 14.7643Z" fill="white"/>
<path d="M135.051 11.1683C135.717 10.8114 136.478 10.6363 137.34 10.6363C138.364 10.6363 139.286 10.8922 140.115 11.4107C140.943 11.9292 141.596 12.67 142.081 13.633C142.559 14.5959 142.801 15.7138 142.801 16.9865C142.801 18.2592 142.559 19.3838 142.081 20.3535C141.603 21.3232 140.943 22.0707 140.115 22.5959C139.286 23.1212 138.364 23.3838 137.34 23.3838C136.465 23.3838 135.704 23.2087 135.051 22.8653C134.397 22.5151 133.886 22.0572 133.515 21.4781V23.2087H129.717V6.771H133.515V12.569C133.872 11.9899 134.384 11.5252 135.051 11.1683ZM138.148 14.7575C137.623 14.2188 136.977 13.9494 136.202 13.9494C135.428 13.9494 134.808 14.2255 134.283 14.771C133.758 15.3165 133.495 16.0639 133.495 17.0134C133.495 17.9629 133.758 18.7104 134.283 19.2558C134.808 19.8013 135.448 20.0774 136.202 20.0774C136.956 20.0774 137.603 19.8013 138.135 19.2424C138.667 18.6902 138.936 17.936 138.936 16.9865C138.936 16.037 138.674 15.2963 138.148 14.7575Z" fill="white"/>
<path d="M149.684 11.1683C150.351 10.8114 151.112 10.6363 151.973 10.6363C152.997 10.6363 153.92 10.8922 154.748 11.4107C155.576 11.9292 156.229 12.67 156.714 13.6329C157.192 14.5959 157.435 15.7138 157.435 16.9865C157.435 18.2592 157.192 19.3838 156.714 20.3535C156.236 21.3232 155.576 22.0707 154.748 22.5959C153.92 23.1212 152.997 23.3838 151.973 23.3838C151.098 23.3838 150.337 23.2087 149.684 22.8653C149.031 22.5151 148.519 22.0572 148.149 21.4781V23.2087H144.351V6.771H148.149V12.569C148.505 11.9899 149.017 11.5252 149.684 11.1683ZM152.782 14.7575C152.256 14.2188 151.61 13.9494 150.835 13.9494C150.061 13.9494 149.441 14.2255 148.916 14.771C148.391 15.3165 148.128 16.0639 148.128 17.0134C148.128 17.9629 148.391 18.7104 148.916 19.2558C149.441 19.8013 150.081 20.0774 150.835 20.0774C151.59 20.0774 152.236 19.8013 152.768 19.2424C153.3 18.6902 153.569 17.936 153.569 16.9865C153.569 16.037 153.307 15.2962 152.782 14.7575Z" fill="white"/>
<path d="M159.266 8.93947C158.842 8.5489 158.633 8.06405 158.633 7.48492C158.633 6.9058 158.842 6.40075 159.266 6.01018C159.69 5.6196 160.229 5.42432 160.895 5.42432C161.562 5.42432 162.081 5.6196 162.505 6.01018C162.929 6.40075 163.138 6.89233 163.138 7.48492C163.138 8.07752 162.929 8.5489 162.505 8.93947C162.081 9.33004 161.549 9.52533 160.895 9.52533C160.242 9.52533 159.683 9.33004 159.266 8.93947ZM162.788 10.8183V23.2088H158.99V10.8115H162.788V10.8183Z" fill="white"/>
<path d="M172 19.9835V23.2023H170.068C168.694 23.2023 167.617 22.8656 166.849 22.1922C166.081 21.5188 165.697 20.4212 165.697 18.8926V13.9633H164.189V10.8118H165.697V7.79492H169.495V10.8118H171.98V13.9633H169.495V18.9397C169.495 19.3101 169.583 19.5794 169.765 19.7411C169.94 19.9027 170.236 19.9835 170.654 19.9835H172.007H172Z" fill="white"/>
<path d="M19.8651 26.7706C18.3971 26.2858 16.9762 22.9727 15.2119 22.9727C17.6833 24.4609 16.6328 26.4339 16.4308 26.7706H19.8718H19.8651Z" fill="white"/>
<path d="M30.5589 14.7639C30.2492 6.88507 23.8788 0.46083 16.0067 0.0971935C7.23232 -0.300113 0 6.68979 0 15.3699C0 18.6831 1.0505 21.747 2.84175 24.2453C3.87205 25.6864 5.48148 26.5955 7.22559 26.7437C4.65993 23.8346 6.84175 21.4036 6.84175 21.4036C5.82492 21.8952 5.40741 23.5517 5.40741 23.5517C3.48148 22.3666 3.92593 20.9524 3.92593 20.9524C4.04714 20.6561 4.32323 19.8413 5.80471 20.1376C8.6734 10.6898 18.1212 15.6123 18.1212 15.6123C17.9731 15.316 17.4815 13.6325 17.4815 13.6325C11.3468 12.7437 9.27273 8.39349 9.27273 8.39349C14.963 6.66285 18.4242 11.3632 18.4242 11.3632C16.8418 7.5046 13.037 9.03996 12.0471 2.70999C18.6532 3.80763 19.6094 8.98608 19.7441 10.1039C19.8384 9.88844 20.3636 9.59888 22.532 9.72682C25.8923 9.92211 28.5657 13.3363 28.5657 13.3363C28.5657 20.2588 20.1077 18.5888 20.1077 23.8211C20.1077 25.0467 21.4411 24.9726 21.8855 25.5652C22.2492 26.0501 22.0943 26.5888 22.0202 26.7639H22.8215C24.7205 26.7639 26.5253 25.8884 27.6431 24.3531C29.5892 21.6797 30.6936 18.3531 30.5589 14.7571V14.7639Z" fill="white"/>
</g>
<defs>
<clipPath id="clip0_6628_5548">
<rect width="172" height="26.6869" fill="white" transform="translate(0 0.0839844)"/>
</clipPath>
</defs>
</svg>
