<svg xmlns="http://www.w3.org/2000/svg" viewBox="0 0 154 42">
    <path fill="white" opacity=".3" d="M40,42H14c-1.7,0-3-1.3-3-3V3c0-1.7,1.3-3,3-3h19l10,10v29C43,40.7,41.6,42,40,42z"/>
    <path fill="white" opacity=".4" d="M43,10H33V0L43,10z"/>
    <path fill="white" opacity=".7" d="M43,10v10L33,10H43z"/>
    <path fill="white" opacity=".8" d="M18,28h18v2H18V28z M18,34h10v-2H18V34z M18,20v2h18v-2H18z M18,26h18v-2H18V26z"/>
    <path fill="white" d="M4.5,10.2L9.1,12l-0.8,4L0,12.3l0.9-4.5l9.8-3.7l-0.8,4L4.6,9.9L4.5,10.2z M12.1,4.1l-0.9,4l4.6,1.8l-0.1,0.3 L10.4,12l-0.9,4l9.9-3.7l0.9-4.5L12.1,4.1z"/>
    <path fill="white" d="M59.66,15.2h-2.67c-0.3,0-0.49,0.1-0.69,0.31c-0.2,0.2-0.3,0.41-0.3,0.72v9.5c0,0.31,0.1,0.51,0.3,0.72 c0.2,0.2,0.4,0.2,0.59,0.2h2.77c1.88,0,3.26-0.51,4.35-1.43c1.09-0.92,1.58-2.35,1.58-4.19c0-1.84-0.49-3.27-1.48-4.29 C63.11,15.72,61.63,15.2,59.66,15.2z M63.41,22.77c-0.1,0.51-0.3,0.92-0.59,1.33c-0.3,0.41-0.69,0.72-1.19,0.82 c-0.49,0.1-1.09,0.2-1.78,0.2h-1.98v-8.28h1.68c1.38,0,2.47,0.31,3.06,0.92c0.69,0.61,0.99,1.63,0.99,3.17 C63.61,21.64,63.51,22.25,63.41,22.77z M74.18,19.8c-0.4-0.41-0.79-0.72-1.28-0.92c-0.49-0.2-1.09-0.31-1.68-0.31 c-0.69,0-1.28,0.1-1.78,0.31c-0.59,0.2-0.99,0.51-1.28,0.92s-0.49,0.82-0.69,1.33c-0.2,0.51-0.3,1.02-0.3,1.53 c0,0.51,0.1,1.02,0.2,1.53c0.1,0.51,0.3,0.92,0.69,1.33c0.4,0.41,0.79,0.72,1.28,0.92c0.49,0.2,1.09,0.41,1.78,0.31 c0.59,0,1.09-0.1,1.48-0.2c0.4-0.1,0.79-0.31,1.09-0.61c0.3-0.31,0.59-0.51,0.79-0.92c0.2-0.41,0.4-0.72,0.49-1.12 c0.1-0.41,0.2-0.82,0.2-1.23c0-0.51-0.1-1.02-0.3-1.53C74.77,20.62,74.57,20.21,74.18,19.8z M72.7,24.81 c-0.4,0.51-0.89,0.82-1.68,0.82c-0.69,0-1.28-0.31-1.68-0.82c-0.4-0.51-0.59-1.23-0.59-2.15s0.2-1.63,0.59-2.15 c0.4-0.51,0.99-0.82,1.68-0.82c0.69,0,1.28,0.31,1.68,0.82c0.4,0.51,0.59,1.23,0.59,2.15S73.09,24.3,72.7,24.81z M82.67,25.63 c0.1,0,0,0.1,0,0.1c0,0.2-0.1,0.41-0.3,0.51c-0.49,0.51-1.28,0.72-2.37,0.72c-0.69-0.1-1.38-0.31-1.98-0.72 c-0.59-0.41-0.99-0.82-1.28-1.53c-0.3-0.72-0.49-1.33-0.49-2.04c0-0.51,0.1-1.12,0.3-1.53c0.2-0.51,0.4-0.92,0.79-1.33 c0.3-0.41,0.69-0.72,1.19-0.92c0.49-0.2,0.99-0.31,1.58-0.31c0.89,0,1.58,0.2,2.17,0.61c0.1,0.1,0.1,0.1,0.2,0.2 c0,0.1,0.1,0.1,0.1,0.2c0,0.1,0,0.1,0,0.2s0,0.1,0,0.2c0,0,0,0.1-0.1,0.1l-0.1,0.1c0,0-0.1,0.1-0.2,0.1s-0.1,0-0.2,0 c-0.1,0-0.1,0-0.2,0s-0.1,0-0.2-0.1c-0.49-0.2-0.89-0.41-1.38-0.41c-0.69,0-1.28,0.31-1.68,0.82c-0.4,0.51-0.59,1.23-0.59,2.15 s0.2,1.53,0.59,2.15c0.4,0.61,0.89,0.82,1.68,0.82c0.69,0,1.19-0.1,1.58-0.41c0.1,0,0.1-0.1,0.2-0.1c0.1,0,0.1,0,0.2,0h0.1 c0,0,0.1,0,0.1,0.1c0,0.1,0.1,0,0.1,0.1c0,0.1,0.1,0.1,0.1,0.1S82.57,25.63,82.67,25.63z M91.07,19.6v6.33c0,0.31-0.1,0.51-0.3,0.61 c-0.2,0.1-0.4,0.2-0.59,0.2c-0.2,0-0.4-0.1-0.59-0.2c-0.2-0.1-0.2-0.41-0.2-0.61v-0.51c-0.2,0.41-0.59,0.82-0.99,1.02 c-0.4,0.2-0.99,0.31-1.58,0.31c-0.3,0.1-0.69,0-0.99-0.1c-0.3-0.1-0.59-0.31-0.89-0.51c-0.3-0.2-0.49-0.61-0.69-1.02 s-0.2-0.82-0.2-1.43V19.5c0-0.31,0.1-0.51,0.3-0.61c0.2-0.1,0.4-0.2,0.59-0.2c0.2,0,0.4,0.1,0.59,0.2c0.2,0.1,0.3,0.31,0.3,0.61 v4.19c0,0.61,0.1,1.02,0.4,1.43c0.3,0.41,0.69,0.51,1.19,0.51c0.59,0,0.99-0.2,1.38-0.72c0.4-0.51,0.59-1.02,0.59-1.74V19.6 c0-0.31,0.1-0.51,0.3-0.61c0.2-0.1,0.4-0.2,0.59-0.2s0.4,0.1,0.59,0.2C91.07,19.09,91.07,19.29,91.07,19.6z M107.77,15.61 c0.1,0.1,0.1,0.31,0.1,0.51v0.1v0.1l-2.37,9.3c-0.2,0.31-0.4,0.61-0.59,0.82c-0.3,0.2-0.59,0.31-0.89,0.31 c-0.3,0-0.59-0.1-0.89-0.31c-0.3-0.2-0.4-0.41-0.49-0.82l-2.47-8.17l-2.47,8.17c-0.1,0.31-0.3,0.61-0.59,0.82 c-0.3,0.2-0.59,0.31-0.89,0.31c-0.3,0-0.59-0.1-0.89-0.31c-0.3-0.2-0.4-0.41-0.49-0.82l-2.37-9.3c0-0.1,0-0.2,0-0.31 c0-0.2,0.1-0.51,0.3-0.61c0.2-0.2,0.4-0.2,0.69-0.2c0.2,0,0.4,0.1,0.49,0.2c0.1,0.1,0.3,0.31,0.3,0.51l2.17,8.89l2.47-8.58 c0.1-0.31,0.3-0.61,0.49-0.72c0.2-0.1,0.49-0.2,0.79-0.2c0.3,0,0.59,0.1,0.79,0.2s0.4,0.41,0.49,0.72l2.47,8.58l2.17-8.89 c0.1-0.2,0.2-0.41,0.3-0.51c0.1-0.1,0.3-0.2,0.49-0.2c0.2,0,0.3,0,0.49,0.1C107.47,15.41,107.67,15.51,107.77,15.61z M113.59,18.98 c0,0.1,0.1,0.1,0.1,0.2c0,0.1,0,0.2,0,0.31c0,0.2,0,0.31-0.1,0.51c-0.1,0.1-0.2,0.2-0.4,0.2c-0.3,0-0.59,0-0.89,0.1 c-0.3,0.1-0.49,0.2-0.69,0.31c-0.2,0.1-0.4,0.31-0.49,0.61c-0.1,0.31-0.2,0.61-0.2,1.02v3.68c0,0.31-0.1,0.51-0.3,0.61 c-0.2,0.1-0.4,0.2-0.59,0.2c-0.1,0-0.3-0.1-0.49-0.31c-0.2-0.1-0.2-0.31-0.2-0.61V19.5c0-0.2,0-0.31,0.1-0.41 c0.1-0.1,0.2-0.2,0.3-0.31c0.1-0.1,0.3-0.1,0.4-0.1c0.2,0,0.4,0.1,0.59,0.2c0.2,0.1,0.2,0.31,0.2,0.51v1.02 c0.1-0.51,0.4-0.92,0.79-1.23c0.4-0.31,0.89-0.51,1.38-0.51c0.1,0,0.2,0,0.3,0.1C113.5,18.78,113.59,18.88,113.59,18.98z M116.85,15.31c0.2,0.2,0.3,0.41,0.3,0.72c0,0.31-0.1,0.51-0.3,0.72c-0.2,0.2-0.4,0.31-0.79,0.31c-0.4,0-0.59-0.1-0.79-0.31 c-0.2-0.2-0.3-0.41-0.3-0.72c0-0.31,0.1-0.51,0.3-0.72c0.2-0.2,0.4-0.31,0.79-0.31C116.46,15,116.66,15.1,116.85,15.31z M116.66,18.98c0.2,0.2,0.3,0.41,0.3,0.61v6.23c0,0.31-0.1,0.51-0.3,0.61c-0.2,0.1-0.4,0.2-0.59,0.2c-0.2,0-0.49,0-0.69-0.2 c-0.2-0.1-0.2-0.41-0.2-0.61V19.6c0-0.31,0.1-0.51,0.3-0.61c0.2-0.2,0.4-0.2,0.59-0.2C116.26,18.78,116.46,18.88,116.66,18.98z M123.57,25.93c0,0.1,0.1,0.2,0.1,0.31c0,0.1,0,0.2,0,0.2s-0.1,0.1-0.1,0.2c0,0.1-0.1,0.1-0.1,0.1s-0.1,0.1-0.2,0.1s-0.1,0-0.2,0.1 c-0.1,0.1-0.2,0-0.3,0c-0.1,0-0.2,0-0.3,0s-0.2,0-0.3,0h-0.1h-0.1h-0.1c-0.89-0.2-1.48-0.41-1.78-0.82 c-0.4-0.41-0.59-1.02-0.59-1.74v-4.39h-0.89c-0.2,0-0.4-0.1-0.49-0.2s-0.2-0.2-0.2-0.41s0.1-0.31,0.2-0.41c0.1-0.1,0.3-0.2,0.49-0.2 h0.89l0.2-2.15c0-0.2,0.1-0.41,0.3-0.51c0.2-0.1,0.3-0.2,0.59-0.2c0.2,0,0.3,0.1,0.49,0.2c0.1,0.1,0.2,0.31,0.2,0.51v2.25h1.38 c0.2,0,0.3,0.1,0.4,0.2c0.1,0.1,0.2,0.2,0.2,0.41s0,0.31-0.1,0.41c-0.1,0.1-0.2,0.2-0.49,0.2h-1.38v3.98c0,0.31,0,0.61,0.1,0.82 c0.1,0.2,0.1,0.41,0.3,0.51c0.2,0.1,0.3,0.2,0.49,0.2h0.1h0.59c0,0,0,0,0.1,0c0.1,0,0.3,0,0.4,0.1 C123.47,25.83,123.57,25.83,123.57,25.93z M130.78,19.7c-0.3-0.31-0.59-0.61-1.09-0.82c-0.49-0.2-0.99-0.31-1.58-0.31 c-0.59,0-1.09,0.1-1.58,0.31c-0.49,0.2-0.89,0.51-1.19,0.92c-0.3,0.41-0.49,0.82-0.69,1.33c-0.2,0.51-0.3,1.02-0.3,1.53 c0,1.33,0.4,2.35,1.09,3.07c0.69,0.72,1.68,1.02,2.86,1.02s2.07-0.31,2.86-1.02c0.2-0.1,0.3-0.31,0.3-0.51c0-0.1-0.1-0.31-0.2-0.41 c-0.1-0.1-0.3-0.2-0.4-0.2c-0.1,0-0.2,0-0.3,0.1c-0.79,0.51-1.48,0.82-2.17,0.82c-0.69,0-1.28-0.2-1.68-0.61 c-0.4-0.41-0.69-1.02-0.69-1.84h5.04c0.2,0,0.3,0,0.4-0.2s0.1-0.31,0.1-0.51c0-0.51-0.1-1.02-0.2-1.43 C131.28,20.42,131.08,20.01,130.78,19.7z M126.04,22.05c0-0.31,0.1-0.51,0.2-0.82c0.1-0.31,0.2-0.51,0.4-0.72 c0.1-0.2,0.3-0.41,0.59-0.51c0.3-0.1,0.59-0.2,0.89-0.2c0.69,0,1.09,0.2,1.48,0.61c0.4,0.41,0.59,1.02,0.59,1.63H126.04z M137.6,18.98c0,0.1,0.1,0.1,0.1,0.2c0,0.1,0,0.2,0,0.31c0,0.2,0,0.31-0.1,0.51c-0.1,0.1-0.2,0.2-0.4,0.2c-0.3,0-0.59,0-0.89,0.1 c-0.3,0.1-0.49,0.2-0.69,0.31c-0.2,0.1-0.4,0.31-0.49,0.61c-0.1,0.31-0.2,0.61-0.2,1.02v3.68c0,0.31-0.1,0.51-0.3,0.61 c-0.2,0.1-0.4,0.2-0.59,0.2c-0.2,0-0.4-0.1-0.49-0.31c-0.2-0.1-0.2-0.31-0.2-0.61V19.5c0-0.2,0-0.31,0.1-0.41 c0.1-0.1,0.2-0.2,0.3-0.31c0.1-0.1,0.3-0.1,0.4-0.1c0.2,0,0.4,0.1,0.59,0.2c0.2,0.1,0.2,0.31,0.2,0.51v1.02 c0.1-0.51,0.4-0.92,0.79-1.23c0.4-0.31,0.89-0.51,1.38-0.51c0.1,0,0.2,0,0.3,0.1C137.5,18.78,137.6,18.88,137.6,18.98z M141.06,25.01c0.2,0.2,0.3,0.41,0.3,0.72c0,0.31-0.1,0.51-0.3,0.72c-0.2,0.2-0.4,0.31-0.69,0.31c-0.3,0-0.59-0.1-0.79-0.31 c-0.2-0.2-0.3-0.41-0.3-0.72c0-0.31,0.1-0.51,0.3-0.72s0.4-0.31,0.79-0.31C140.66,24.71,140.86,24.81,141.06,25.01z M146.79,18.58 c-1.09,0-2.07,0.2-2.86,0.61c-0.2,0-0.3,0.2-0.3,0.41s0.1,0.41,0.2,0.51c0.1,0.1,0.2,0.2,0.4,0.2c0.1,0,0.1,0,0.1,0 c0.1,0,0.1,0,0.1,0c0.1,0,0.1,0,0.1,0c0.2-0.1,0.49-0.2,0.59-0.2c0.1-0.1,0.4-0.1,0.69-0.2c0.3-0.1,0.59-0.1,0.89-0.1 c0.99,0,1.48,0.51,1.48,1.53v0.72c-0.49,0-0.89-0.1-1.19,0c-0.3,0.1-0.59,0.1-0.99,0.1s-0.69,0-0.89,0.1c-0.2,0.1-0.49,0.1-0.69,0.2 c-0.2,0.1-0.3,0.2-0.49,0.31c-0.2,0.1-0.3,0.2-0.4,0.41s-0.1,0.41-0.2,0.61c-0.1,0.2-0.1,0.41-0.1,0.72c0,0.82,0.3,1.33,0.79,1.74 c0.49,0.41,1.19,0.61,1.88,0.51c1.09,0,1.78-0.41,2.27-1.33v0.41c0,0.31,0.2,0.61,0.49,0.72c0.1,0.1,0.3,0.1,0.4,0.1 c0.2,0,0.49-0.1,0.59-0.2c0.1-0.1,0.2-0.31,0.2-0.61v-4.39c0-0.92-0.2-1.63-0.79-2.15C148.47,18.78,147.78,18.58,146.79,18.58z M148.17,23.28c0,0.72-0.2,1.33-0.59,1.74c-0.49,0.41-0.89,0.61-1.28,0.61c-0.4,0-0.59-0.1-0.89-0.31c-0.3-0.2-0.4-0.51-0.4-0.92 c0-0.1,0-0.31,0-0.41c0-0.1,0-0.2,0.1-0.31c0.1-0.1,0.1-0.1,0.2-0.2c0.1-0.1,0.2-0.2,0.3-0.2c0.1,0,0.2,0,0.4-0.1 c0.2-0.1,0.4-0.1,0.59-0.1s0.49,0,0.69,0c0.2,0,0.49,0,0.89,0V23.28z M152.12,16.74c-0.2-0.2-0.3-0.41-0.3-0.72 c0-0.31,0.1-0.51,0.3-0.72c0.2-0.2,0.4-0.31,0.79-0.31c0.4,0,0.59,0.1,0.79,0.31c0.2,0.2,0.3,0.41,0.3,0.72 c0,0.31-0.1,0.51-0.3,0.72c-0.2,0.2-0.4,0.31-0.79,0.31C152.52,17.04,152.32,16.94,152.12,16.74z M153.51,18.98 c0.2,0.2,0.3,0.41,0.3,0.61v6.23c0,0.31-0.1,0.51-0.3,0.61c-0.2,0.1-0.4,0.2-0.59,0.2s-0.49,0-0.69-0.2c-0.2-0.1-0.2-0.41-0.2-0.61 V19.6c0-0.31,0.1-0.51,0.3-0.61c0.2-0.2,0.4-0.2,0.59-0.2S153.31,18.88,153.51,18.98z"/>
</svg>
