<svg xmlns="http://www.w3.org/2000/svg" viewBox="0 0 150 30">
    <path fill="white" opacity=".5" d="M38.9,13.8h2.2c0.3,0,0.7,0,1.1,0c0.4,0,0.7-0.1,1.1-0.2c0.3-0.2,0.6-0.3,0.7-0.6c0.2-0.2,0.3-0.7,0.3-1.1 c0-0.4-0.1-0.8-0.2-1.1c-0.2-0.2-0.4-0.5-0.6-0.6c-0.2-0.2-0.6-0.2-0.9-0.2c-0.3-0.1-0.7-0.1-1.1-0.1H39L38.9,13.8L38.9,13.8z M35.2,6.6h6.5c0.9,0,1.7,0.1,2.4,0.2c0.8,0.2,1.5,0.5,2,0.8c0.6,0.4,1.1,0.9,1.4,1.7c0.3,0.7,0.5,1.6,0.5,2.6c0,1.2-0.3,2.3-1,3.1 c-0.6,0.8-1.5,1.4-2.7,1.7l4.3,7.3h-4.4l-3.6-6.9h-1.9V24h-3.7V6.6H35.2z M53.4,18c0,0.9,0.2,1.7,0.7,2.2c0.5,0.6,1.2,0.8,2.1,0.8 s1.6-0.2,2.1-0.8c0.5-0.6,0.7-1.3,0.7-2.2c0-0.9-0.2-1.7-0.7-2.2c-0.5-0.6-1.2-0.8-2.1-0.8s-1.6,0.2-2.1,0.8 C53.6,16.4,53.4,17.1,53.4,18z M49.8,18c0-1,0.2-1.8,0.5-2.6c0.3-0.7,0.8-1.4,1.4-2c0.6-0.6,1.3-1,2-1.2c0.8-0.3,1.6-0.4,2.5-0.4 s1.7,0.2,2.5,0.4c0.8,0.3,1.5,0.7,2,1.2c0.6,0.6,1.1,1.2,1.4,2c0.3,0.7,0.5,1.7,0.5,2.6c0,1-0.2,1.8-0.5,2.6c-0.3,0.7-0.8,1.4-1.4,2 c-0.6,0.6-1.3,1-2,1.2c-0.8,0.3-1.6,0.4-2.5,0.4s-1.7-0.2-2.5-0.4c-0.8-0.3-1.5-0.7-2-1.2c-0.6-0.6-1.1-1.2-1.4-2 C50,19.8,49.8,19,49.8,18z M75.9,24h-3.5v-1.7h-0.1c-0.2,0.2-0.3,0.5-0.5,0.7c-0.2,0.2-0.4,0.4-0.7,0.7c-0.3,0.2-0.6,0.3-1,0.4 c-0.4,0.1-0.7,0.2-1.2,0.2c-0.9,0-1.6-0.2-2.2-0.4c-0.6-0.2-1-0.7-1.3-1.2c-0.3-0.5-0.5-1.1-0.6-1.8c-0.1-0.7-0.2-1.4-0.2-2.2v-6.6 h3.6v5.9c0,0.3,0,0.7,0,1.1c0,0.3,0.1,0.7,0.2,1c0.2,0.2,0.3,0.6,0.6,0.7c0.2,0.2,0.6,0.3,1.1,0.3c0.5,0,0.8-0.1,1.1-0.2 c0.3-0.2,0.5-0.4,0.6-0.7c0.2-0.2,0.2-0.6,0.3-1c0.1-0.3,0.1-0.7,0.1-1.2v-5.9h3.6V24z M86.3,15h-3.2v4c0,0.3,0,0.7,0.1,0.9 c0,0.2,0.1,0.5,0.2,0.7c0.1,0.2,0.2,0.3,0.5,0.5c0.2,0.1,0.6,0.2,0.9,0.2c0.2,0,0.4,0,0.7-0.1c0.3,0,0.6-0.2,0.7-0.2v3.1 c-0.4,0.2-0.8,0.2-1.2,0.3s-0.9,0.1-1.3,0.1c-0.6,0-1.1-0.1-1.7-0.2c-0.5-0.2-1-0.3-1.4-0.7c-0.4-0.2-0.6-0.7-0.9-1.2 c-0.2-0.5-0.3-1-0.3-1.7V15h-2.3v-3h2.3V8.5h3.6v3.6h3.2L86.3,15L86.3,15z M96.1,16.7c0-0.7-0.2-1.2-0.6-1.6c-0.4-0.4-1-0.7-1.6-0.7 c-0.4,0-0.7,0.1-1.1,0.2c-0.3,0.2-0.6,0.3-0.8,0.5c-0.2,0.2-0.4,0.4-0.5,0.7c-0.1,0.2-0.2,0.6-0.2,0.8H96.1z M99.2,22 c-0.6,0.7-1.3,1.3-2.2,1.7c-0.9,0.4-1.8,0.6-2.7,0.6c-0.9,0-1.7-0.2-2.5-0.4c-0.8-0.3-1.5-0.7-2-1.2c-0.6-0.6-1.1-1.2-1.4-2 c-0.3-0.7-0.5-1.7-0.5-2.6c0-1,0.2-1.8,0.5-2.6c0.3-0.7,0.8-1.4,1.4-2c0.6-0.6,1.3-1,2-1.2c0.8-0.3,1.6-0.4,2.5-0.4 c0.8,0,1.6,0.2,2.3,0.4c0.6,0.3,1.2,0.7,1.7,1.2c0.5,0.6,0.8,1.2,1.1,2c0.2,0.7,0.4,1.7,0.4,2.6v1.2h-8.3c0.2,0.7,0.5,1.2,1,1.7 c0.5,0.4,1.1,0.7,1.8,0.7c0.6,0,1.1-0.2,1.5-0.4c0.4-0.2,0.7-0.7,1.1-1.1L99.2,22z M116.5,6.6h5.6l4,11.4l4-11.4h5.6V24h-3.7V10.7 h-0.1L127.3,24h-2.8l-4.3-13.4V24h-3.7V6.6z M146.4,16.7c0-0.7-0.2-1.2-0.6-1.6c-0.4-0.4-1-0.7-1.6-0.7c-0.4,0-0.7,0.1-1.1,0.2 c-0.3,0.2-0.6,0.3-0.8,0.5c-0.2,0.2-0.4,0.4-0.5,0.7c-0.1,0.2-0.2,0.6-0.2,0.8H146.4z M149.5,22c-0.6,0.7-1.3,1.3-2.2,1.7 c-0.9,0.4-1.8,0.6-2.7,0.6c-0.9,0-1.7-0.2-2.5-0.4c-0.8-0.3-1.5-0.7-2-1.2c-0.6-0.6-1.1-1.2-1.4-2c-0.3-0.7-0.5-1.7-0.5-2.6 c0-1,0.2-1.8,0.5-2.6c0.3-0.7,0.8-1.4,1.4-2c0.6-0.6,1.3-1,2-1.2c0.8-0.3,1.6-0.4,2.5-0.4c0.8,0,1.6,0.2,2.3,0.4 c0.6,0.3,1.2,0.7,1.7,1.2c0.5,0.6,0.8,1.2,1,2c0.2,0.7,0.4,1.7,0.4,2.6v1.2h-8.3c0.2,0.7,0.5,1.2,1,1.7c0.5,0.4,1.1,0.7,1.8,0.7 c0.6,0,1.1-0.2,1.5-0.4c0.4-0.2,0.7-0.7,1.1-1.1L149.5,22z"/>
    <path fill="white" d="M108.6,11.4l-3.8,6h3.8V11.4z M108.6,20.6h-7.3v-3.1l6.9-10.8h3.9v10.8h2.2v3.1H112V24h-3.5L108.6,20.6 L108.6,20.6z M20,6.8c0.2,0.2,0.2,0.6,0,0.7l-2.7,2.7c-0.2,0.2-0.2,0.4,0.2,0.6c1.5,0.6,2.7,1.8,3.2,3.3c0.1,0.2,0.3,0.3,0.6,0.2 l2.7-2.7c0.2-0.2,0.6-0.2,0.7,0l2.3,2.4c0.2,0.2,0.4,0.2,0.4-0.2V4.3c0-0.2-0.1-0.2-0.2-0.2h-9.4c-0.3,0-0.3,0.2-0.2,0.4L20,6.8z M13.7,10.7c0.2-0.1,0.3-0.3,0.2-0.6l-2.7-2.7c-0.2-0.2-0.2-0.6,0-0.7l2.3-2.4c0.2-0.2,0.2-0.4-0.2-0.4H4.2C4,4,3.9,4.1,3.9,4.3v9.5 c0,0.3,0.2,0.3,0.4,0.2l2.3-2.4c0.2-0.2,0.6-0.2,0.7,0l2.7,2.7c0.2,0.2,0.4,0.2,0.6-0.2C11.1,12.6,12.3,11.3,13.7,10.7z M15.9,21.6 c-0.3,0-0.4,0.2-0.3,0.5l1.5,3.5c0.1,0.2,0,0.6-0.2,0.7l-3,1.4c-0.2,0.2-0.2,0.3,0,0.4l8.7,3.2c0.2,0.1,0.3,0,0.3-0.2l3.2-8.9 c0.1-0.2,0-0.4-0.3-0.2l-3,1.4c-0.2,0.2-0.6,0-0.7-0.2l-1.7-3.7c-0.1-0.2-0.3-0.2-0.5-0.1c-0.5,0.7-1.1,1.2-1.9,1.7 c-0.5,0.2-1.1,0.4-1.7,0.5C16.3,21.6,16.1,21.6,15.9,21.6z"/>
    <path fill="white" opacity=".25" d="M28.2,1.6c0-0.9,0.7-1.6,1.5-1.6c0.9,0,1.5,0.7,1.5,1.6c0,0.9-0.7,1.6-1.5,1.6C28.9,3.2,28.2,2.5,28.2,1.6z M0,1.6C0,0.7,0.7,0,1.5,0c0.9,0,1.6,0.7,1.6,1.6c0,0.9-0.7,1.7-1.6,1.7C0.7,3.2,0,2.5,0,1.6z M22.3,34.4c0-0.9,0.7-1.6,1.5-1.6 c0.9,0,1.5,0.7,1.5,1.6c0,0.9-0.7,1.6-1.5,1.6S22.3,35.3,22.3,34.4z M11.7,16c0-2.2,1.8-4,3.9-4c2.2,0,3.9,1.8,3.9,4 c0,2.2-1.8,4-3.9,4C13.5,20,11.7,18.2,11.7,16z"/>
</svg>
