<svg xmlns="http://www.w3.org/2000/svg" viewBox="0 0 200 26">
    <path fill="white" opacity=".75" d="M94.4,5.9c-0.4,0.8-0.6,1.6-0.6,2.6s0.2,1.9,0.6,2.6c0.4,0.8,0.9,1.4,1.6,1.8c0.7,0.4,1.5,0.6,2.4,0.6 c0.8,0,1.6-0.2,2.3-0.6c0.7-0.4,1.3-0.9,1.7-1.6v0l2.4,2.6c-0.7,0.9-1.6,1.6-2.8,2.2c-1.1,0.6-2.4,0.8-3.7,0.8 c-1.3,0-2.4-0.2-3.5-0.6s-1.9-1-2.7-1.8c-0.8-0.8-1.3-1.7-1.7-2.7c-0.4-1-0.6-2.2-0.6-3.4s0.2-2.4,0.6-3.4c0.4-1,1-1.9,1.8-2.7 C93,1.6,93.9,1,94.9,0.6C96,0.2,97.1,0,98.4,0c1.4,0,2.6,0.3,3.7,0.8c1.1,0.6,2,1.3,2.7,2.2l-2.4,2.6c-0.5-0.7-1-1.2-1.7-1.6 c-0.7-0.4-1.5-0.6-2.3-0.6c-0.9,0-1.7,0.2-2.4,0.6C95.3,4.5,94.8,5.1,94.4,5.9z M116.3,6.7h-6.4V0.4h-3.8v16.3h3.8V10h6.4v6.7h3.8 V0.4h-3.8V6.7z M157.2,8.5c0,1.2-0.2,2.4-0.6,3.4c-0.4,1-1,1.9-1.8,2.7c-0.8,0.8-1.7,1.3-2.7,1.8c-1,0.4-2.2,0.6-3.4,0.6 s-2.4-0.2-3.4-0.6c-1-0.4-1.9-1-2.7-1.8c-0.8-0.8-1.4-1.7-1.8-2.7c-0.4-1-0.6-2.2-0.6-3.4c0-0.8,0.1-1.6,0.3-2.4c0,0,0,0,0,0 c0,0,0,0,0,0c-0.3,0-0.6,0-1,0s-0.6,0-0.9,0c0,0,0,0,0,0c0,0,0,0,0,0c0.2,0.7,0.3,1.5,0.3,2.4c0,1.2-0.2,2.4-0.6,3.4 c-0.4,1-1,1.9-1.8,2.7c-0.8,0.8-1.7,1.3-2.7,1.8c-1,0.4-2.2,0.6-3.4,0.6c-1.2,0-2.4-0.2-3.4-0.6s-1.9-1-2.7-1.8 c-0.8-0.8-1.4-1.7-1.8-2.7c-0.4-1-0.6-2.2-0.6-3.4s0.2-2.4,0.6-3.4c0.4-1,1-1.9,1.8-2.7c0.8-0.8,1.7-1.3,2.7-1.8 c1-0.4,2.2-0.6,3.4-0.6c1.2,0,2.4,0.2,3.4,0.6c1,0.4,1.9,1,2.7,1.8c0.4,0.4,0.7,0.7,1,1.2c0,0,0,0,0,0c0.7-0.1,1.3-0.2,2.1-0.2 s1.4,0.1,2.1,0.2c0,0,0,0,0,0c0.3-0.4,0.6-0.8,1-1.2c0.8-0.8,1.7-1.3,2.7-1.8c1-0.4,2.2-0.6,3.4-0.6c1.2,0,2.4,0.2,3.4,0.6 c1,0.4,1.9,1,2.7,1.8c0.8,0.8,1.4,1.7,1.8,2.7C157,6.1,157.2,7.3,157.2,8.5z M134.8,8.5c0-0.5,0-0.9-0.1-1.3 c-0.1-0.5-0.2-0.9-0.5-1.3c-0.2-0.3-0.4-0.6-0.6-0.9c-0.3-0.4-0.6-0.7-1-0.9c-0.7-0.4-1.5-0.6-2.4-0.6c-0.9,0-1.7,0.2-2.4,0.6 c-0.7,0.4-1.2,1-1.6,1.8c-0.4,0.8-0.6,1.6-0.6,2.6c0,1,0.2,1.9,0.6,2.6c0.4,0.8,0.9,1.4,1.6,1.8c0.7,0.4,1.5,0.6,2.4,0.6 s1.7-0.2,2.4-0.6c0.7-0.4,1.2-1,1.6-1.8C134.6,10.4,134.8,9.5,134.8,8.5z M153.2,8.5c0-1-0.2-1.9-0.6-2.6c-0.4-0.8-0.9-1.4-1.6-1.8 s-1.5-0.6-2.4-0.6s-1.7,0.2-2.4,0.6c-0.4,0.2-0.7,0.5-1,0.9c-0.2,0.3-0.4,0.6-0.6,0.9c-0.2,0.4-0.4,0.8-0.5,1.3 C144.1,7.6,144,8,144,8.5c0,1,0.2,1.9,0.6,2.6c0.4,0.8,0.9,1.4,1.6,1.8c0.7,0.4,1.5,0.6,2.4,0.6s1.7-0.2,2.4-0.6 c0.7-0.4,1.2-1,1.6-1.8C153,10.4,153.2,9.5,153.2,8.5z M168.4,7.6c-0.9-0.5-2.1-0.8-3.4-1c-0.9-0.1-1.6-0.3-2.1-0.4 c-0.5-0.1-0.8-0.3-1-0.5c-0.2-0.2-0.3-0.4-0.3-0.7c0-0.5,0.2-0.9,0.7-1.2s1.1-0.5,1.9-0.5s1.6,0.2,2.4,0.6c0.8,0.4,1.4,1,1.9,1.7 l2.5-2.6c-0.8-0.9-1.7-1.6-2.9-2.2C167,0.3,165.7,0,164.2,0c-1.2,0-2.4,0.2-3.3,0.7c-1,0.4-1.7,1.1-2.3,1.9 c-0.6,0.8-0.8,1.7-0.8,2.7c0,0.9,0.2,1.7,0.7,2.3c0.4,0.7,1.1,1.2,2,1.6s2.1,0.8,3.5,1c1.3,0.2,2.2,0.5,2.7,0.8 c0.5,0.3,0.7,0.7,0.7,1.2c0,0.3-0.1,0.6-0.3,0.8c-0.2,0.2-0.5,0.4-1,0.5c-0.4,0.1-1,0.2-1.6,0.2c-0.6,0-1.2-0.1-1.8-0.3 c-0.6-0.2-1.2-0.4-1.7-0.8s-1-0.8-1.3-1.2l-2.5,2.6h0c0.8,0.9,1.8,1.6,3,2.2c1.2,0.6,2.6,0.9,4.2,0.9c1.3,0,2.5-0.2,3.5-0.6 c1-0.4,1.8-1,2.4-1.8c0.6-0.8,0.9-1.7,0.9-2.8c0-1-0.2-1.8-0.7-2.5C170,8.7,169.3,8.1,168.4,7.6z M172.8,16.7h11.5v0v-3.3h-7.7v-3.3 h7.3V6.8h-7.3V3.6h7.7V0.4h-11.5V16.7z M200,16.7h-4.6l-4-5.8h-1.8v5.8v0h-3.8V0.4h6.6c1.2,0,2.2,0.2,3.1,0.7 c0.9,0.4,1.6,1.1,2.1,1.8c0.5,0.8,0.7,1.7,0.7,2.7c0,1-0.2,1.9-0.7,2.7c-0.5,0.8-1.2,1.4-2.1,1.8c-0.1,0-0.1,0-0.2,0.1L200,16.7z M194.5,5.6c0-0.6-0.2-1.1-0.6-1.4c-0.4-0.4-0.9-0.5-1.5-0.5h-2.8v4h2.8c0.6,0,1.2-0.2,1.5-0.5C194.3,6.7,194.5,6.2,194.5,5.6z"></path>
    <path fill="white" d="M10.1,8C10,8,10,8,10.1,8c0.6-0.3,1.1-0.8,1.5-1.3c0.4-0.6,0.7-1.3,0.7-2.1c0-0.8-0.2-1.6-0.7-2.2 c-0.4-0.6-1.1-1.1-1.8-1.5S8,0.4,6.9,0.4H0v16.3h6.9c1.2,0,2.2-0.2,3.1-0.6c0.9-0.4,1.6-1,2.1-1.7c0.5-0.7,0.7-1.6,0.7-2.5 c0-0.9-0.2-1.7-0.7-2.3S10.9,8.4,10.1,8z M3.8,3.6h2.9c0.5,0,1,0.1,1.3,0.4s0.5,0.6,0.5,1.1c0,0.5-0.1,0.9-0.5,1.2 C7.6,6.6,7.2,6.8,6.7,6.8H3.8V3.6z M8.5,13c-0.4,0.3-0.9,0.5-1.5,0.5H3.8v0V9.9H7c0.6,0,1.2,0.2,1.5,0.5C8.9,10.7,9,11.1,9,11.6 C9,12.2,8.9,12.6,8.5,13z M23.9,10.2c0.9-0.4,1.6-1.1,2.1-1.8c0.5-0.8,0.7-1.7,0.7-2.7c0-1-0.2-2-0.7-2.7c-0.5-0.8-1.2-1.4-2.1-1.8 c-0.9-0.4-1.9-0.7-3.1-0.7h-6.6v16.3H18v0v-5.8h1.8l4,5.8h4.6l-4.7-6.4C23.7,10.2,23.8,10.2,23.9,10.2z M22.3,7.1 c-0.4,0.4-0.9,0.5-1.5,0.5H18v-4h2.8c0.6,0,1.2,0.2,1.5,0.5c0.4,0.4,0.6,0.8,0.6,1.4C22.9,6.2,22.7,6.7,22.3,7.1z M42.3,2.4 c-0.8-0.8-1.7-1.4-2.7-1.8S37.4,0,36.2,0c-1.2,0-2.4,0.2-3.4,0.6s-1.9,1-2.7,1.8s-1.4,1.7-1.8,2.7c-0.4,1-0.6,2.2-0.6,3.4 s0.2,2.4,0.6,3.4c0.4,1,1,1.9,1.8,2.7s1.7,1.4,2.7,1.8s2.2,0.6,3.4,0.6c1.2,0,2.4-0.2,3.4-0.6s1.9-1,2.7-1.8s1.4-1.7,1.8-2.7 c0.4-1,0.6-2.2,0.6-3.4s-0.2-2.4-0.6-3.4C43.7,4.1,43.1,3.2,42.3,2.4z M40.2,11.1c-0.4,0.8-0.9,1.4-1.6,1.8s-1.5,0.6-2.4,0.6 c-0.9,0-1.7-0.2-2.4-0.6c-0.7-0.4-1.2-1-1.6-1.8c-0.4-0.8-0.6-1.6-0.6-2.6c0-1,0.2-1.9,0.6-2.6c0.4-0.8,0.9-1.4,1.6-1.8 c0.7-0.4,1.5-0.6,2.4-0.6c0.9,0,1.7,0.2,2.4,0.6s1.2,1,1.6,1.8s0.6,1.6,0.6,2.6C40.7,9.5,40.6,10.4,40.2,11.1z M54.3,8.2l7.4,8.5v0 h-4.9l-6.7-7.8v7.8h-3.8V0.4h3.8V8l6.1-7.6h4.6L54.3,8.2z M62.5,0.4H74v3.3h-7.7v3.2h7.3v3.3h-7.3v3.3H74v3.3v0H62.5V0.4z M85.3,10.2c0.9-0.4,1.6-1.1,2.1-1.8c0.5-0.8,0.7-1.7,0.7-2.7c0-1-0.2-2-0.7-2.7c-0.5-0.8-1.2-1.4-2.1-1.8c-0.9-0.4-1.9-0.7-3.1-0.7 h-6.6v16.3h3.8v0v-5.8h1.8l4,5.8h4.6l-4.7-6.4C85.2,10.2,85.2,10.2,85.3,10.2z M83.7,7.1c-0.4,0.4-0.9,0.5-1.5,0.5h-2.8v-4h2.8 c0.6,0,1.2,0.2,1.5,0.5c0.4,0.4,0.6,0.8,0.6,1.4C84.3,6.2,84.1,6.7,83.7,7.1z M147.1,22.7L147.1,22.7c0,0.7-0.3,1.3-0.9,1.6 c-0.7,0.4-1.4,0.7-2.1,1c-1.5,0.5-3,0.8-4.7,0.8c-1.7,0-3.2-0.3-4.7-0.8c-0.7-0.3-1.4-0.6-2.1-1c-0.5-0.3-0.9-0.9-0.9-1.5 c0-1.2,1.1-2.1,2.1-1.6c0.4,0.2,0.7,0.3,1.1,0.4c1.4,0.5,2.9,0.8,4.5,0.8v0c1.9,0,3.7-0.4,5.5-1.2C146,20.6,147.1,21.4,147.1,22.7z"></path>
</svg>