<?xml version="1.0" encoding="utf-8"?>
<!-- Generator: Adobe Illustrator 25.4.1, SVG Export Plug-In . SVG Version: 6.00 Build 0)  -->
<svg version="1.1" id="Capa_1" xmlns="http://www.w3.org/2000/svg" xmlns:xlink="http://www.w3.org/1999/xlink" x="0px" y="0px"
     viewBox="0 0 159.4 48" style="enable-background:new 0 0 159.4 48;" xml:space="preserve">
<style type="text/css">
    .st0{fill:#38B000;}
    .st1{opacity:0.76;fill:#006400;}
    .st2{fill:#008000;}
    .st3{fill:#E3F2FD;}
    .st4{fill:#CCFF33;}
    .st5{fill:none;}
    .st6{fill:#FFFFFF;}
</style>
<path class="st0" d="M41.2,45h-26c-1.7,0-3-1.3-3-3V6c0-1.7,1.3-3,3-3h19l10,10v29C44.2,43.7,42.8,45,41.2,45z"/>
<polygon class="st1" points="44.2,13 34.2,13 34.2,3 "/>
<polygon class="st2" points="34.2,13 44.2,23 44.2,13 "/>
<g>
    <rect x="19.2" y="23" class="st3" width="18" height="2"/>
    <rect x="19.2" y="27" class="st3" width="18" height="2"/>
    <rect x="19.2" y="31" class="st3" width="18" height="2"/>
    <rect x="19.2" y="35" class="st3" width="10" height="2"/>
</g>
<g>
    <path class="st4" d="M1.2,15.3l0.9-4.5l9.8-3.7l-0.8,4l-5.3,1.8l-0.1,0.3l4.6,1.8l-0.8,4L1.2,15.3z"/>
    <path class="st4" d="M11.6,15l5.3-1.8l0.1-0.3l-4.6-1.8l0.9-4l8.2,3.7l-0.9,4.5L10.7,19L11.6,15z"/>
</g>
<g>
    <rect x="53.9" y="18.3" class="st5" width="101.5" height="11.3"/>
    <path class="st6" d="M55.5,29.3c-0.2-0.2-0.3-0.4-0.3-0.7v-9.3c0-0.3,0.1-0.5,0.3-0.7s0.4-0.3,0.7-0.3h2.7c2,0,3.5,0.5,4.5,1.5
        s1.5,2.4,1.5,4.2c0,1.8-0.5,3.2-1.6,4.1s-2.5,1.4-4.4,1.4h-2.8C55.9,29.5,55.7,29.5,55.5,29.3z M59.1,28c0.7,0,1.3-0.1,1.8-0.2
        s0.9-0.4,1.2-0.8s0.5-0.8,0.6-1.3s0.2-1.1,0.2-1.8c0-1.5-0.3-2.5-1-3.1c-0.6-0.6-1.7-0.9-3.1-0.9h-1.7V28H59.1z"/>
    <path class="st6" d="M68.7,29.3c-0.5-0.2-0.9-0.5-1.3-0.9s-0.6-0.8-0.7-1.3s-0.2-1-0.2-1.5c0-0.5,0.1-1,0.3-1.5s0.4-0.9,0.7-1.3
        c0.3-0.4,0.7-0.7,1.3-0.9c0.5-0.2,1.1-0.3,1.8-0.3c0.6,0,1.2,0.1,1.7,0.3c0.5,0.2,0.9,0.5,1.3,0.9s0.6,0.8,0.7,1.3
        c0.2,0.5,0.3,1,0.3,1.5c0,0.4-0.1,0.8-0.2,1.2s-0.3,0.7-0.5,1.1s-0.5,0.6-0.8,0.9s-0.7,0.5-1.1,0.6s-0.9,0.2-1.5,0.2
        C69.8,29.7,69.2,29.5,68.7,29.3z M72.1,27.7c0.4-0.5,0.6-1.2,0.6-2.1c0-0.9-0.2-1.6-0.6-2.1s-1-0.8-1.7-0.8s-1.3,0.3-1.7,0.8
        c-0.4,0.5-0.6,1.2-0.6,2.1c0,0.9,0.2,1.6,0.6,2.1s1,0.8,1.7,0.8C71.2,28.5,71.7,28.2,72.1,27.7z"/>
    <path class="st6" d="M77.5,29.1c-0.6-0.4-1-0.8-1.3-1.5s-0.5-1.3-0.5-2c0-0.5,0.1-1.1,0.3-1.5c0.2-0.5,0.4-0.9,0.8-1.3
        c0.3-0.4,0.7-0.7,1.2-0.9c0.5-0.2,1-0.3,1.6-0.3c0.9,0,1.6,0.2,2.2,0.6c0.1,0.1,0.1,0.1,0.2,0.2c0,0.1,0.1,0.1,0.1,0.2
        c0,0.1,0,0.1,0,0.2c0,0.1,0,0.1,0,0.2c0,0,0,0.1-0.1,0.1c0,0-0.1,0.1-0.1,0.1s-0.1,0.1-0.2,0.1s-0.1,0-0.2,0c-0.1,0-0.1,0-0.2,0
        s-0.1,0-0.2-0.1c-0.5-0.2-0.9-0.4-1.4-0.4c-0.7,0-1.3,0.3-1.7,0.8c-0.4,0.5-0.6,1.2-0.6,2.1c0,0.9,0.2,1.5,0.6,2.1s0.9,0.8,1.7,0.8
        c0.7,0,1.2-0.1,1.6-0.4c0.1,0,0.1-0.1,0.2-0.1s0.1,0,0.2,0c0,0,0.1,0,0.1,0s0.1,0,0.1,0.1s0.1,0,0.1,0.1s0.1,0.1,0.1,0.1
        s0,0.1,0.1,0.1s0,0.1,0,0.1c0,0.2-0.1,0.4-0.3,0.5c-0.5,0.5-1.3,0.7-2.4,0.7C78.8,29.7,78.1,29.5,77.5,29.1z"/>
    <path class="st6" d="M85.4,29.5c-0.3-0.1-0.6-0.3-0.9-0.5S84,28.4,83.8,28s-0.2-0.8-0.2-1.4v-4.1c0-0.3,0.1-0.5,0.3-0.6
        c0.2-0.1,0.4-0.2,0.6-0.2c0.2,0,0.4,0.1,0.6,0.2c0.2,0.1,0.3,0.3,0.3,0.6v4.1c0,0.6,0.1,1,0.4,1.4s0.7,0.5,1.2,0.5
        c0.6,0,1-0.2,1.4-0.7s0.6-1,0.6-1.7v-3.5c0-0.3,0.1-0.5,0.3-0.6c0.2-0.1,0.4-0.2,0.6-0.2s0.4,0.1,0.6,0.2c0.2,0.1,0.2,0.3,0.2,0.6
        v6.2c0,0.3-0.1,0.5-0.3,0.6s-0.4,0.2-0.6,0.2c-0.2,0-0.4-0.1-0.6-0.2S89,29,89,28.8v-0.5c-0.2,0.4-0.6,0.8-1,1s-1,0.3-1.6,0.3
        C86.1,29.7,85.7,29.6,85.4,29.5z"/>
    <path class="st6" d="M104.7,29.3c-0.3,0.2-0.6,0.3-0.9,0.3c-0.3,0-0.6-0.1-0.9-0.3s-0.4-0.4-0.5-0.8l-2.5-8l-2.5,8
        c-0.1,0.3-0.3,0.6-0.6,0.8s-0.6,0.3-0.9,0.3c-0.3,0-0.6-0.1-0.9-0.3s-0.4-0.4-0.5-0.8l-2.4-9.1c0-0.1,0-0.2,0-0.3
        c0-0.2,0.1-0.5,0.3-0.6c0.2-0.2,0.4-0.2,0.7-0.2c0.2,0,0.4,0.1,0.5,0.2s0.3,0.3,0.3,0.5l2.2,8.7l2.5-8.4c0.1-0.3,0.3-0.6,0.5-0.7
        s0.5-0.2,0.8-0.2c0.3,0,0.6,0.1,0.8,0.2c0.2,0.1,0.4,0.4,0.5,0.7l2.5,8.4l2.2-8.7c0.1-0.2,0.2-0.4,0.3-0.5s0.3-0.2,0.5-0.2
        c0.2,0,0.3,0,0.5,0.1c0.1,0.1,0.3,0.2,0.4,0.3c0.1,0.1,0.1,0.3,0.1,0.5c0,0,0,0.1,0,0.1c0,0,0,0.1,0,0.1l-2.4,9.1
        C105.1,28.8,104.9,29.1,104.7,29.3z"/>
    <path class="st6" d="M109.4,29.3c-0.2-0.1-0.2-0.3-0.2-0.6v-6.2c0-0.2,0-0.3,0.1-0.4c0.1-0.1,0.2-0.2,0.3-0.3s0.3-0.1,0.4-0.1
        c0.2,0,0.4,0.1,0.6,0.2c0.2,0.1,0.2,0.3,0.2,0.5l0,1c0.1-0.5,0.4-0.9,0.8-1.2s0.9-0.5,1.4-0.5c0.1,0,0.2,0,0.3,0.1
        c0.1,0,0.2,0.1,0.2,0.2s0.1,0.1,0.1,0.2c0,0.1,0,0.2,0,0.3c0,0.2,0,0.3-0.1,0.5c-0.1,0.1-0.2,0.2-0.4,0.2c-0.3,0-0.6,0-0.9,0.1
        c-0.3,0.1-0.5,0.2-0.7,0.3c-0.2,0.1-0.4,0.3-0.5,0.6c-0.1,0.3-0.2,0.6-0.2,1v3.6c0,0.3-0.1,0.5-0.3,0.6s-0.4,0.2-0.6,0.2
        C109.8,29.6,109.6,29.5,109.4,29.3z"/>
    <path class="st6" d="M115.2,19.8c-0.2-0.2-0.3-0.4-0.3-0.7c0-0.3,0.1-0.5,0.3-0.7c0.2-0.2,0.4-0.3,0.8-0.3s0.6,0.1,0.8,0.3
        c0.2,0.2,0.3,0.4,0.3,0.7c0,0.3-0.1,0.5-0.3,0.7s-0.4,0.3-0.8,0.3C115.6,20.1,115.4,20,115.2,19.8z M115.3,29.3
        c-0.2-0.1-0.2-0.4-0.2-0.6v-6.1c0-0.3,0.1-0.5,0.3-0.6c0.2-0.2,0.4-0.2,0.6-0.2c0.2,0,0.4,0.1,0.6,0.2c0.2,0.2,0.3,0.4,0.3,0.6v6.1
        c0,0.3-0.1,0.5-0.3,0.6s-0.4,0.2-0.6,0.2S115.5,29.5,115.3,29.3z"/>
    <path class="st6" d="M120.1,29c-0.4-0.4-0.6-1-0.6-1.7v-4.3h-0.9c-0.2,0-0.4-0.1-0.5-0.2s-0.2-0.2-0.2-0.4s0.1-0.3,0.2-0.4
        c0.1-0.1,0.3-0.2,0.5-0.2h0.9l0.2-2.1c0-0.2,0.1-0.4,0.3-0.5c0.2-0.1,0.3-0.2,0.6-0.2c0.2,0,0.3,0.1,0.5,0.2
        c0.1,0.1,0.2,0.3,0.2,0.5v2.2h1.4c0.2,0,0.3,0.1,0.4,0.2c0.1,0.1,0.2,0.2,0.2,0.4c0,0.2,0,0.3-0.1,0.4s-0.2,0.2-0.5,0.2h-1.4v3.9
        c0,0.3,0,0.6,0.1,0.8s0.1,0.4,0.3,0.5s0.3,0.2,0.5,0.2h0.1l0.6,0c0,0,0,0,0.1,0c0.1,0,0.3,0,0.4,0.1s0.2,0.1,0.2,0.2
        s0.1,0.2,0.1,0.3c0,0.1,0,0.2,0,0.2s-0.1,0.1-0.1,0.2s-0.1,0.1-0.1,0.1s-0.1,0.1-0.2,0.1s-0.1,0-0.2,0.1s-0.2,0-0.3,0
        c-0.1,0-0.2,0-0.3,0c-0.1,0-0.2,0-0.3,0c0,0-0.1,0-0.1,0s-0.1,0-0.1,0s-0.1,0-0.1,0C121,29.6,120.4,29.4,120.1,29z"/>
    <path class="st6" d="M125.5,28.6c-0.7-0.7-1.1-1.7-1.1-3c0-0.5,0.1-1,0.3-1.5c0.2-0.5,0.4-0.9,0.7-1.3c0.3-0.4,0.7-0.7,1.2-0.9
        c0.5-0.2,1-0.3,1.6-0.3c0.6,0,1.1,0.1,1.6,0.3s0.8,0.5,1.1,0.8s0.5,0.7,0.6,1.2c0.1,0.4,0.2,0.9,0.2,1.4c0,0.2,0,0.3-0.1,0.5
        s-0.2,0.2-0.4,0.2h-5.1c0,0.8,0.3,1.4,0.7,1.8s1,0.6,1.7,0.6c0.7,0,1.4-0.3,2.2-0.8c0.1-0.1,0.2-0.1,0.3-0.1c0.1,0,0.3,0.1,0.4,0.2
        s0.2,0.3,0.2,0.4c0,0.2-0.1,0.4-0.3,0.5c-0.8,0.7-1.7,1-2.9,1C127.2,29.6,126.2,29.3,125.5,28.6z M130.3,25c0-0.6-0.2-1.2-0.6-1.6
        s-0.8-0.6-1.5-0.6c-0.3,0-0.6,0.1-0.9,0.2c-0.3,0.1-0.5,0.3-0.6,0.5c-0.2,0.2-0.3,0.4-0.4,0.7c-0.1,0.3-0.2,0.5-0.2,0.8H130.3z"/>
    <path class="st6" d="M133.7,29.3c-0.2-0.1-0.2-0.3-0.2-0.6v-6.2c0-0.2,0-0.3,0.1-0.4c0.1-0.1,0.2-0.2,0.3-0.3s0.3-0.1,0.4-0.1
        c0.2,0,0.4,0.1,0.6,0.2c0.2,0.1,0.2,0.3,0.2,0.5l0,1c0.1-0.5,0.4-0.9,0.8-1.2s0.9-0.5,1.4-0.5c0.1,0,0.2,0,0.3,0.1
        c0.1,0,0.2,0.1,0.2,0.2s0.1,0.1,0.1,0.2c0,0.1,0,0.2,0,0.3c0,0.2,0,0.3-0.1,0.5c-0.1,0.1-0.2,0.2-0.4,0.2c-0.3,0-0.6,0-0.9,0.1
        c-0.3,0.1-0.5,0.2-0.7,0.3c-0.2,0.1-0.4,0.3-0.5,0.6c-0.1,0.3-0.2,0.6-0.2,1v3.6c0,0.3-0.1,0.5-0.3,0.6s-0.4,0.2-0.6,0.2
        C134,29.6,133.8,29.5,133.7,29.3z"/>
    <path class="st6" d="M139.8,29.3c-0.2-0.2-0.3-0.4-0.3-0.7c0-0.3,0.1-0.5,0.3-0.7s0.4-0.3,0.8-0.3c0.3,0,0.5,0.1,0.7,0.3
        s0.3,0.4,0.3,0.7c0,0.3-0.1,0.5-0.3,0.7s-0.4,0.3-0.7,0.3C140.3,29.6,140,29.5,139.8,29.3z"/>
    <path class="st6" d="M144.3,29.1c-0.5-0.4-0.8-0.9-0.8-1.7c0-0.3,0-0.5,0.1-0.7s0.1-0.4,0.2-0.6s0.2-0.3,0.4-0.4s0.3-0.2,0.5-0.3
        s0.5-0.1,0.7-0.2s0.5-0.1,0.9-0.1s0.7,0,1-0.1s0.7,0,1.2,0v-0.7c0-1-0.5-1.5-1.5-1.5c-0.3,0-0.6,0-0.9,0.1
        c-0.3,0.1-0.6,0.1-0.7,0.2c-0.1,0-0.4,0.1-0.6,0.2c0,0,0,0-0.1,0c0,0,0,0-0.1,0c0,0,0,0-0.1,0c-0.2,0-0.3-0.1-0.4-0.2
        c-0.1-0.1-0.2-0.3-0.2-0.5c0-0.2,0.1-0.4,0.3-0.4c0.8-0.4,1.8-0.6,2.9-0.6c1,0,1.7,0.2,2.3,0.7c0.6,0.5,0.8,1.2,0.8,2.1v4.3
        c0,0.3-0.1,0.5-0.2,0.6s-0.4,0.2-0.6,0.2c-0.1,0-0.3,0-0.4-0.1c-0.3-0.1-0.5-0.4-0.5-0.7v-0.4c-0.5,0.9-1.2,1.3-2.3,1.3
        C145.5,29.7,144.8,29.5,144.3,29.1z M147.9,27.9c0.4-0.4,0.6-1,0.6-1.7V26c-0.4,0-0.7,0-0.9,0s-0.5,0-0.7,0s-0.4,0-0.6,0.1
        s-0.3,0.1-0.4,0.1s-0.2,0.1-0.3,0.2s-0.1,0.1-0.2,0.2s-0.1,0.2-0.1,0.3s0,0.3,0,0.4c0,0.4,0.1,0.7,0.4,0.9s0.5,0.3,0.9,0.3
        C147,28.5,147.4,28.3,147.9,27.9z"/>
    <path class="st6" d="M152.5,19.8c-0.2-0.2-0.3-0.4-0.3-0.7c0-0.3,0.1-0.5,0.3-0.7c0.2-0.2,0.4-0.3,0.8-0.3s0.6,0.1,0.8,0.3
        c0.2,0.2,0.3,0.4,0.3,0.7c0,0.3-0.1,0.5-0.3,0.7s-0.4,0.3-0.8,0.3C152.9,20.1,152.7,20,152.5,19.8z M152.6,29.3
        c-0.2-0.1-0.2-0.4-0.2-0.6v-6.1c0-0.3,0.1-0.5,0.3-0.6c0.2-0.2,0.4-0.2,0.6-0.2c0.2,0,0.4,0.1,0.6,0.2c0.2,0.2,0.3,0.4,0.3,0.6v6.1
        c0,0.3-0.1,0.5-0.3,0.6s-0.4,0.2-0.6,0.2S152.8,29.5,152.6,29.3z"/>
</g>
</svg>
